<svg xmlns="http://www.w3.org/2000/svg" xmlns:xlink="http://www.w3.org/1999/xlink" version="1.1" width="256" height="256" viewBox="0 0 256 256" xml:space="preserve">

<defs>
</defs>
<g style="stroke: none; stroke-width: 0; stroke-dasharray: none; stroke-linecap: butt; stroke-linejoin: miter; stroke-miterlimit: 10; fill: none; fill-rule: nonzero; opacity: 1;" transform="translate(1.4065934065934016 1.4065934065934016) scale(2.81 2.81)" >
	<path d="M 44.112 8.154 c 0.287 -1.3 0.223 -2.728 -0.846 -4.339 c -1.108 -1.67 -2.89 -2.817 -4.894 -2.815 c -3.247 0.002 -5.878 2.635 -5.878 5.882 c 0 0.438 0.056 0.861 0.146 1.272 h -5.445 c -0.991 0 -1.794 0.803 -1.794 1.794 v 4.149 c 0 1.953 1.583 3.536 3.536 3.536 h 18.877 c 1.953 0 3.536 -1.583 3.536 -3.536 V 9.948 c 0 -0.991 -0.803 -1.794 -1.794 -1.794 H 44.112 z" style="stroke: none; stroke-width: 1; stroke-dasharray: none; stroke-linecap: butt; stroke-linejoin: miter; stroke-miterlimit: 10; fill: rgb(25,118,210); fill-rule: nonzero; opacity: 1;" transform=" matrix(1 0 0 1 0 0) " stroke-linecap="round" />
	<path d="M 75.51 89 H 41.424 c -2.247 0 -4.068 -1.821 -4.068 -4.068 V 37.101 c 0 -2.247 1.821 -4.068 4.068 -4.068 H 75.51 c 2.247 0 4.068 1.821 4.068 4.068 v 47.832 C 79.577 87.179 77.756 89 75.51 89 z" style="stroke: none; stroke-width: 1; stroke-dasharray: none; stroke-linecap: butt; stroke-linejoin: miter; stroke-miterlimit: 10; fill: rgb(216,230,239); fill-rule: nonzero; opacity: 1;" transform=" matrix(1 0 0 1 0 0) " stroke-linecap="round" />
	<path d="M 37.357 37.101 c 0 -2.247 1.821 -4.068 4.068 -4.068 h 24.905 V 15.707 c 0 -2.184 -1.77 -3.954 -3.954 -3.954 H 51.351 v 2.344 c 0 1.953 -1.583 3.536 -3.536 3.536 H 28.937 c -1.953 0 -3.536 -1.583 -3.536 -3.536 v -2.344 H 14.377 c -2.184 0 -3.954 1.77 -3.954 3.954 v 62.248 c 0 2.184 1.77 3.954 3.954 3.954 h 22.98 V 37.101 z" style="stroke: none; stroke-width: 1; stroke-dasharray: none; stroke-linecap: butt; stroke-linejoin: miter; stroke-miterlimit: 10; fill: rgb(33,150,243); fill-rule: nonzero; opacity: 1;" transform=" matrix(1 0 0 1 0 0) " stroke-linecap="round" />
	<path d="M 47.814 18.633 H 28.938 c -2.501 0 -4.537 -2.035 -4.537 -4.536 V 9.948 c 0 -1.541 1.253 -2.794 2.794 -2.794 H 31.5 c -0.004 -0.091 -0.006 -0.181 -0.006 -0.271 c 0 -3.792 3.085 -6.879 6.877 -6.882 c 0.001 0 0.003 0 0.005 0 c 2.229 0 4.369 1.219 5.724 3.262 c 0.827 1.247 1.208 2.529 1.15 3.892 h 4.307 c 1.541 0 2.794 1.253 2.794 2.794 v 4.149 C 52.351 16.598 50.315 18.633 47.814 18.633 z M 27.195 9.154 c -0.438 0 -0.794 0.356 -0.794 0.794 v 4.149 c 0 1.398 1.138 2.536 2.537 2.536 h 18.877 c 1.398 0 2.536 -1.138 2.536 -2.536 V 9.948 c 0 -0.438 -0.356 -0.794 -0.794 -0.794 h -5.445 c -0.303 0 -0.59 -0.138 -0.78 -0.374 c -0.189 -0.236 -0.262 -0.546 -0.197 -0.842 c 0.288 -1.303 0.071 -2.404 -0.703 -3.57 C 41.449 2.885 39.932 2 38.375 2 c -0.001 0 -0.002 0 -0.003 0 c -2.69 0.002 -4.879 2.192 -4.879 4.882 c 0 0.336 0.04 0.682 0.123 1.056 c 0.065 0.296 -0.007 0.605 -0.197 0.842 s -0.477 0.374 -0.78 0.374 H 27.195 z" style="stroke: none; stroke-width: 1; stroke-dasharray: none; stroke-linecap: butt; stroke-linejoin: miter; stroke-miterlimit: 10; fill: rgb(0,0,0); fill-rule: nonzero; opacity: 1;" transform=" matrix(1 0 0 1 0 0) " stroke-linecap="round" />
	<path d="M 75.51 90 H 41.424 c -2.794 0 -5.068 -2.273 -5.068 -5.067 V 37.101 c 0 -2.794 2.273 -5.068 5.068 -5.068 H 75.51 c 2.794 0 5.067 2.273 5.067 5.068 v 47.832 C 80.577 87.727 78.304 90 75.51 90 z M 41.424 34.033 c -1.691 0 -3.068 1.376 -3.068 3.068 v 47.832 c 0 1.691 1.376 3.067 3.068 3.067 H 75.51 c 1.691 0 3.067 -1.376 3.067 -3.067 V 37.101 c 0 -1.691 -1.376 -3.068 -3.067 -3.068 H 41.424 z" style="stroke: none; stroke-width: 1; stroke-dasharray: none; stroke-linecap: butt; stroke-linejoin: miter; stroke-miterlimit: 10; fill: rgb(0,0,0); fill-rule: nonzero; opacity: 1;" transform=" matrix(1 0 0 1 0 0) " stroke-linecap="round" />
	<path d="M 70.74 50.198 H 46.193 c -0.552 0 -1 -0.447 -1 -1 s 0.448 -1 1 -1 H 70.74 c 0.553 0 1 0.447 1 1 S 71.293 50.198 70.74 50.198 z" style="stroke: none; stroke-width: 1; stroke-dasharray: none; stroke-linecap: butt; stroke-linejoin: miter; stroke-miterlimit: 10; fill: rgb(0,0,0); fill-rule: nonzero; opacity: 1;" transform=" matrix(1 0 0 1 0 0) " stroke-linecap="round" />
	<path d="M 70.74 62.017 H 46.193 c -0.552 0 -1 -0.447 -1 -1 s 0.448 -1 1 -1 H 70.74 c 0.553 0 1 0.447 1 1 S 71.293 62.017 70.74 62.017 z" style="stroke: none; stroke-width: 1; stroke-dasharray: none; stroke-linecap: butt; stroke-linejoin: miter; stroke-miterlimit: 10; fill: rgb(0,0,0); fill-rule: nonzero; opacity: 1;" transform=" matrix(1 0 0 1 0 0) " stroke-linecap="round" />
	<linearGradient id="SVGID_1" gradientUnits="userSpaceOnUse" x1="46.1935" y1="72.8348" x2="58.9222" y2="72.8348">
<stop offset="0%" style="stop-color:rgb(255,255,255);stop-opacity: 1"/>
<stop offset="100%" style="stop-color:rgb(0,0,0);stop-opacity: 1"/>
</linearGradient>
<line x1="-6.363999999999997" y1="0" x2="6.363999999999997" y2="0" style="stroke: none; stroke-width: 1; stroke-dasharray: none; stroke-linecap: butt; stroke-linejoin: miter; stroke-miterlimit: 10; fill: url(#SVGID_1); fill-rule: nonzero; opacity: 1;" transform=" matrix(1 0 0 1 0 0) "/>
	<path d="M 58.922 73.835 H 46.193 c -0.552 0 -1 -0.447 -1 -1 s 0.448 -1 1 -1 h 12.729 c 0.553 0 1 0.447 1 1 S 59.475 73.835 58.922 73.835 z" style="stroke: none; stroke-width: 1; stroke-dasharray: none; stroke-linecap: butt; stroke-linejoin: miter; stroke-miterlimit: 10; fill: rgb(0,0,0); fill-rule: nonzero; opacity: 1;" transform=" matrix(1 0 0 1 0 0) " stroke-linecap="round" />
	<path d="M 37.356 82.909 h -22.98 c -2.732 0 -4.954 -2.223 -4.954 -4.955 V 15.707 c 0 -2.732 2.222 -4.954 4.954 -4.954 h 11.024 c 0.552 0 1 0.448 1 1 v 2.344 c 0 1.398 1.138 2.536 2.536 2.536 h 18.877 c 1.398 0 2.536 -1.138 2.536 -2.536 v -2.344 c 0 -0.552 0.447 -1 1 -1 h 11.024 c 2.731 0 4.954 2.222 4.954 4.954 v 17.326 c 0 0.552 -0.447 1 -1 1 H 41.424 c -1.691 0 -3.068 1.376 -3.068 3.068 v 44.809 C 38.356 82.462 37.909 82.909 37.356 82.909 z M 14.376 12.753 c -1.629 0 -2.954 1.325 -2.954 2.954 v 62.247 c 0 1.63 1.325 2.955 2.954 2.955 h 21.98 V 37.101 c 0 -2.794 2.273 -5.068 5.068 -5.068 h 23.905 V 15.707 c 0 -1.629 -1.325 -2.954 -2.954 -2.954 H 52.351 v 1.344 c 0 2.501 -2.035 4.536 -4.536 4.536 H 28.937 c -2.501 0 -4.536 -2.035 -4.536 -4.536 v -1.344 H 14.376 z" style="stroke: none; stroke-width: 1; stroke-dasharray: none; stroke-linecap: butt; stroke-linejoin: miter; stroke-miterlimit: 10; fill: rgb(0,0,0); fill-rule: nonzero; opacity: 1;" transform=" matrix(1 0 0 1 0 0) " stroke-linecap="round" />
</g>
</svg>