<svg xmlns="http://www.w3.org/2000/svg" xmlns:xlink="http://www.w3.org/1999/xlink" version="1.1" width="256" height="256" viewBox="0 0 256 256" xml:space="preserve">

<defs>
</defs>
<g style="stroke: none; stroke-width: 0; stroke-dasharray: none; stroke-linecap: butt; stroke-linejoin: miter; stroke-miterlimit: 10; fill: none; fill-rule: nonzero; opacity: 1;" transform="translate(1.4065934065934016 1.4065934065934016) scale(2.81 2.81)" >
	<path d="M 75.323 84.075 H 14.677 C 6.584 84.075 0 77.491 0 69.398 v -9.256 c 0 -2.762 2.239 -5 5 -5 s 5 2.238 5 5 v 9.256 c 0 2.579 2.098 4.677 4.677 4.677 h 60.646 c 2.579 0 4.677 -2.098 4.677 -4.677 v -9.256 c 0 -2.762 2.238 -5 5 -5 s 5 2.238 5 5 v 9.256 C 90 77.491 83.416 84.075 75.323 84.075 z" style="stroke: none; stroke-width: 1; stroke-dasharray: none; stroke-linecap: butt; stroke-linejoin: miter; stroke-miterlimit: 10; fill: rgb(21,101,181); fill-rule: nonzero; opacity: 1;" transform=" matrix(1 0 0 1 0 0) " stroke-linecap="round" />
	<path d="M 64.397 41.369 c -1.951 -1.952 -5.119 -1.952 -7.07 0 L 50 48.695 V 20.602 c 0 -8.093 -6.584 -14.677 -14.677 -14.677 h -9.256 c -2.761 0 -5 2.239 -5 5 s 2.239 5 5 5 h 9.256 c 2.579 0 4.677 2.098 4.677 4.677 v 28.094 l -7.326 -7.326 c -1.952 -1.951 -5.117 -1.952 -7.071 0 c -1.953 1.953 -1.953 5.119 0 7.071 L 41.463 64.3 c 0.233 0.233 0.49 0.441 0.765 0.625 c 0.12 0.08 0.251 0.135 0.376 0.204 c 0.16 0.088 0.314 0.184 0.484 0.255 c 0.164 0.068 0.335 0.107 0.504 0.156 c 0.143 0.042 0.281 0.098 0.429 0.127 c 0.323 0.064 0.651 0.099 0.979 0.099 c 0.328 0 0.656 -0.034 0.979 -0.099 c 0.15 -0.03 0.289 -0.086 0.434 -0.129 c 0.167 -0.049 0.336 -0.088 0.499 -0.155 c 0.173 -0.072 0.33 -0.169 0.493 -0.259 c 0.122 -0.068 0.25 -0.121 0.367 -0.199 c 0.277 -0.185 0.535 -0.395 0.768 -0.629 l 15.857 -15.857 C 66.351 46.487 66.351 43.321 64.397 41.369 z" style="stroke: none; stroke-width: 1; stroke-dasharray: none; stroke-linecap: butt; stroke-linejoin: miter; stroke-miterlimit: 10; fill: rgb(21,101,181); fill-rule: nonzero; opacity: 1;" transform=" matrix(1 0 0 1 0 0) " stroke-linecap="round" />
</g>
</svg>