<svg width="62" height="10" viewBox="0 0 62 10" fill="none" xmlns="http://www.w3.org/2000/svg">
<path d="M1.16504 4.92353H5.62928M3.39716 2.69141V7.15565" stroke="url(#paint0_linear_907_9260)" stroke-width="0.721493" stroke-linecap="round" stroke-linejoin="round"/>
<path d="M10.8429 2.83438V8.05078H10.1358V2.83438H10.8429ZM14.5949 8.04357H13.9167V2.74059H14.5949V5.0638C14.7056 4.8714 14.8643 4.71748 15.0711 4.60204C15.278 4.48179 15.5185 4.42167 15.7926 4.42167C16.24 4.42167 16.5742 4.55394 16.7955 4.81849C17.0168 5.08304 17.1274 5.44138 17.1274 5.89352V8.05078H16.4492V6.04503C16.4492 5.80453 16.4131 5.61213 16.341 5.46784C16.2736 5.31873 16.175 5.2105 16.0452 5.14316C15.9201 5.07582 15.7734 5.04215 15.605 5.04215C15.3886 5.04215 15.2034 5.09025 15.0495 5.18645C14.9004 5.28265 14.7873 5.41252 14.7104 5.57606C14.6334 5.7396 14.5949 5.92238 14.5949 6.12439V8.04357ZM19.0985 8.13736C18.7233 8.13736 18.4275 8.03876 18.211 7.84155C17.9994 7.64434 17.8936 7.38701 17.8936 7.06955C17.8936 6.74728 18.009 6.48995 18.2399 6.29755C18.4708 6.10034 18.793 5.98491 19.2067 5.95124L20.3178 5.86466V5.76365C20.3178 5.56644 20.2817 5.41012 20.2096 5.29468C20.1374 5.17443 20.0388 5.09025 19.9138 5.04215C19.7887 4.98924 19.6468 4.96279 19.4881 4.96279C19.2043 4.96279 18.983 5.02291 18.8243 5.14316C18.6704 5.2586 18.5934 5.42455 18.5934 5.64099H18.0018C18.0018 5.39569 18.0643 5.18164 18.1894 4.99886C18.3145 4.81609 18.49 4.67419 18.7161 4.57318C18.947 4.47217 19.2139 4.42167 19.5169 4.42167C19.8104 4.42167 20.0653 4.47458 20.2817 4.5804C20.503 4.68141 20.6737 4.83773 20.794 5.04937C20.919 5.2562 20.9816 5.51834 20.9816 5.8358V8.05078H20.4044L20.3322 7.4808C20.2408 7.68282 20.0821 7.84395 19.856 7.9642C19.6348 8.07964 19.3823 8.13736 19.0985 8.13736ZM19.2933 7.61067C19.6155 7.61067 19.8681 7.51447 20.0508 7.32207C20.2336 7.12486 20.325 6.86032 20.325 6.52843V6.34084L19.4231 6.41299C19.1249 6.44185 18.9085 6.5116 18.7738 6.62222C18.6439 6.73285 18.579 6.87475 18.579 7.04791C18.579 7.23549 18.6415 7.37739 18.7666 7.47359C18.8965 7.56498 19.072 7.61067 19.2933 7.61067ZM22.7683 8.05078L21.347 4.52268H22.0685L22.8405 6.49236C22.903 6.65589 22.9583 6.81222 23.0064 6.96133C23.0545 7.10562 23.093 7.23068 23.1219 7.3365C23.1555 7.21625 23.1964 7.08398 23.2445 6.93968C23.2974 6.79538 23.3552 6.64627 23.4177 6.49236L24.2041 4.52268H24.9112L23.4393 8.05078H22.7683ZM26.8111 8.13736C26.4696 8.13736 26.1665 8.0604 25.902 7.90648C25.6374 7.74775 25.4306 7.53131 25.2815 7.25714C25.1324 6.97816 25.0578 6.65589 25.0578 6.29034C25.0578 5.91997 25.13 5.5953 25.2743 5.31632C25.4234 5.03734 25.6254 4.81849 25.8803 4.65976C26.1401 4.50103 26.4407 4.42167 26.7822 4.42167C27.1189 4.42167 27.4099 4.49382 27.6552 4.63812C27.9053 4.78242 28.0977 4.98443 28.2324 5.24417C28.3719 5.50391 28.4416 5.80934 28.4416 6.16047V6.41299L25.4186 6.42021L25.433 5.96567H27.7634C27.7634 5.67226 27.6745 5.43657 27.4965 5.2586C27.3185 5.08063 27.0804 4.99165 26.7822 4.99165C26.5561 4.99165 26.3613 5.04215 26.1978 5.14316C26.0391 5.23936 25.9164 5.38366 25.8298 5.57606C25.7481 5.76365 25.7072 5.98972 25.7072 6.25426C25.7072 6.67754 25.8034 7.00462 25.9958 7.23549C26.1882 7.46156 26.4648 7.5746 26.8255 7.5746C27.09 7.5746 27.3065 7.52169 27.4748 7.41587C27.6432 7.31005 27.7562 7.15613 27.8139 6.95411H28.4489C28.3623 7.32929 28.1771 7.62029 27.8933 7.82712C27.6095 8.03395 27.2488 8.13736 26.8111 8.13736ZM32.2037 8.13736C31.8285 8.13736 31.5327 8.03876 31.3163 7.84155C31.1047 7.64434 30.9988 7.38701 30.9988 7.06955C30.9988 6.74728 31.1143 6.48995 31.3451 6.29755C31.576 6.10034 31.8983 5.98491 32.312 5.95124L33.4231 5.86466V5.76365C33.4231 5.56644 33.387 5.41012 33.3148 5.29468C33.2427 5.17443 33.1441 5.09025 33.019 5.04215C32.894 4.98924 32.7521 4.96279 32.5933 4.96279C32.3095 4.96279 32.0883 5.02291 31.9296 5.14316C31.7756 5.2586 31.6987 5.42455 31.6987 5.64099H31.1071C31.1071 5.39569 31.1696 5.18164 31.2946 4.99886C31.4197 4.81609 31.5953 4.67419 31.8213 4.57318C32.0522 4.47217 32.3192 4.42167 32.6222 4.42167C32.9156 4.42167 33.1705 4.47458 33.387 4.5804C33.6082 4.68141 33.779 4.83773 33.8992 5.04937C34.0243 5.2562 34.0868 5.51834 34.0868 5.8358V8.05078H33.5096L33.4375 7.4808C33.3461 7.68282 33.1874 7.84395 32.9613 7.9642C32.74 8.07964 32.4875 8.13736 32.2037 8.13736ZM32.3985 7.61067C32.7208 7.61067 32.9733 7.51447 33.1561 7.32207C33.3389 7.12486 33.4303 6.86032 33.4303 6.52843V6.34084L32.5284 6.41299C32.2302 6.44185 32.0137 6.5116 31.8791 6.62222C31.7492 6.73285 31.6843 6.87475 31.6843 7.04791C31.6843 7.23549 31.7468 7.37739 31.8718 7.47359C32.0017 7.56498 32.1773 7.61067 32.3985 7.61067ZM36.768 6.29034C36.768 5.91997 36.8402 5.5953 36.9845 5.31632C37.1336 5.03734 37.338 4.81849 37.5977 4.65976C37.8575 4.50103 38.1581 4.42167 38.4996 4.42167C38.9421 4.42167 39.3101 4.53951 39.6035 4.7752C39.8969 5.01089 40.0725 5.32354 40.1302 5.71314H39.452C39.3943 5.48707 39.2812 5.31632 39.1129 5.20088C38.9445 5.08544 38.7473 5.02772 38.5212 5.02772C38.3096 5.02772 38.122 5.08063 37.9585 5.18645C37.7949 5.28746 37.6675 5.43176 37.5761 5.61935C37.4847 5.80694 37.439 6.0282 37.439 6.28312C37.439 6.53805 37.4823 6.75931 37.5689 6.9469C37.6555 7.12967 37.7781 7.27397 37.9368 7.37979C38.0956 7.4808 38.2807 7.53131 38.4924 7.53131C38.7329 7.53131 38.9397 7.47118 39.1129 7.35093C39.286 7.23068 39.4015 7.06715 39.4592 6.86032H40.1374C40.0941 7.11524 39.9955 7.33891 39.8416 7.53131C39.6925 7.71889 39.5001 7.868 39.2644 7.97863C39.0335 8.08445 38.7762 8.13736 38.4924 8.13736C38.1461 8.13736 37.843 8.0604 37.5833 7.90648C37.3284 7.75256 37.1288 7.53852 36.9845 7.26435C36.8402 6.98538 36.768 6.6607 36.768 6.29034ZM40.6221 6.28312C40.6221 5.92238 40.7015 5.60251 40.8602 5.32354C41.0189 5.04456 41.2354 4.82571 41.5095 4.66698C41.7885 4.50825 42.106 4.42888 42.4619 4.42888C42.8178 4.42888 43.1329 4.50825 43.4071 4.66698C43.6812 4.82571 43.8977 5.04456 44.0564 5.32354C44.2151 5.60251 44.2945 5.92238 44.2945 6.28312C44.2945 6.64387 44.2151 6.96373 44.0564 7.24271C43.8977 7.52169 43.6812 7.74054 43.4071 7.89927C43.1329 8.058 42.8178 8.13736 42.4619 8.13736C42.106 8.13736 41.7885 8.058 41.5095 7.89927C41.2354 7.74054 41.0189 7.52169 40.8602 7.24271C40.7015 6.96373 40.6221 6.64387 40.6221 6.28312ZM41.3075 6.28312C41.3075 6.52843 41.3556 6.74488 41.4518 6.93247C41.5528 7.12005 41.6899 7.26676 41.8631 7.37258C42.0362 7.4784 42.2358 7.53131 42.4619 7.53131C42.688 7.53131 42.8876 7.4784 43.0607 7.37258C43.2339 7.26676 43.3686 7.12005 43.4648 6.93247C43.5658 6.74488 43.6163 6.52843 43.6163 6.28312C43.6163 6.033 43.5658 5.81656 43.4648 5.63378C43.3686 5.44619 43.2339 5.29949 43.0607 5.19367C42.8876 5.08785 42.688 5.03494 42.4619 5.03494C42.2358 5.03494 42.0362 5.08785 41.8631 5.19367C41.6899 5.29949 41.5528 5.44619 41.4518 5.63378C41.3556 5.81656 41.3075 6.033 41.3075 6.28312ZM47.3993 4.52268H48.0703V8.05078H47.4643L47.3921 7.51688C47.2911 7.69965 47.1324 7.84876 46.9159 7.9642C46.6995 8.07964 46.4614 8.13736 46.2017 8.13736C45.7928 8.13736 45.4754 8.0099 45.2493 7.75497C45.028 7.49523 44.9174 7.14891 44.9174 6.71602V4.52268H45.5956V6.49236C45.5956 6.86753 45.6702 7.13689 45.8193 7.30043C45.9732 7.45916 46.18 7.53852 46.4397 7.53852C46.7524 7.53852 46.9905 7.44232 47.154 7.24992C47.3176 7.05272 47.3993 6.76412 47.3993 6.38413V4.52268ZM49.0543 9.63085V4.52268H49.6676L49.7181 5.15759C49.8335 4.91229 50.0043 4.72951 50.2304 4.60926C50.4612 4.4842 50.7162 4.42167 50.9951 4.42167C51.3318 4.42167 51.6228 4.50103 51.8681 4.65976C52.1134 4.81368 52.301 5.03013 52.4309 5.30911C52.5656 5.58327 52.6329 5.90073 52.6329 6.26148C52.6329 6.62222 52.568 6.94449 52.4381 7.22828C52.3131 7.51207 52.1279 7.73573 51.8826 7.89927C51.6421 8.06281 51.3463 8.14458 50.9951 8.14458C50.7113 8.14458 50.4588 8.08686 50.2376 7.97142C50.0163 7.85598 49.848 7.69003 49.7325 7.47359V9.63085H49.0543ZM49.7397 6.29034C49.7397 6.52603 49.783 6.74007 49.8696 6.93247C49.961 7.12005 50.0885 7.26676 50.252 7.37258C50.4203 7.4784 50.62 7.53131 50.8508 7.53131C51.0817 7.53131 51.2789 7.4784 51.4425 7.37258C51.606 7.26195 51.7311 7.11284 51.8176 6.92525C51.909 6.73766 51.9547 6.52603 51.9547 6.29034C51.9547 6.04503 51.909 5.82858 51.8176 5.64099C51.7311 5.45341 51.606 5.3067 51.4425 5.20088C51.2789 5.09506 51.0817 5.04215 50.8508 5.04215C50.62 5.04215 50.4203 5.09506 50.252 5.20088C50.0885 5.3067 49.961 5.45341 49.8696 5.64099C49.783 5.82858 49.7397 6.04503 49.7397 6.29034ZM53.1496 6.28312C53.1496 5.92238 53.2289 5.60251 53.3877 5.32354C53.5464 5.04456 53.7628 4.82571 54.037 4.66698C54.316 4.50825 54.6334 4.42888 54.9894 4.42888C55.3453 4.42888 55.6604 4.50825 55.9345 4.66698C56.2087 4.82571 56.4252 5.04456 56.5839 5.32354C56.7426 5.60251 56.822 5.92238 56.822 6.28312C56.822 6.64387 56.7426 6.96373 56.5839 7.24271C56.4252 7.52169 56.2087 7.74054 55.9345 7.89927C55.6604 8.058 55.3453 8.13736 54.9894 8.13736C54.6334 8.13736 54.316 8.058 54.037 7.89927C53.7628 7.74054 53.5464 7.52169 53.3877 7.24271C53.2289 6.96373 53.1496 6.64387 53.1496 6.28312ZM53.835 6.28312C53.835 6.52843 53.8831 6.74488 53.9793 6.93247C54.0803 7.12005 54.2174 7.26676 54.3905 7.37258C54.5637 7.4784 54.7633 7.53131 54.9894 7.53131C55.2155 7.53131 55.4151 7.4784 55.5882 7.37258C55.7614 7.26676 55.8961 7.12005 55.9923 6.93247C56.0933 6.74488 56.1438 6.52843 56.1438 6.28312C56.1438 6.033 56.0933 5.81656 55.9923 5.63378C55.8961 5.44619 55.7614 5.29949 55.5882 5.19367C55.4151 5.08785 55.2155 5.03494 54.9894 5.03494C54.7633 5.03494 54.5637 5.08785 54.3905 5.19367C54.2174 5.29949 54.0803 5.44619 53.9793 5.63378C53.8831 5.81656 53.835 6.033 53.835 6.28312ZM58.2509 8.05078H57.5727V4.52268H58.186L58.2581 5.0638C58.3688 4.86178 58.5275 4.70546 58.7343 4.59483C58.946 4.47939 59.1768 4.42167 59.427 4.42167C59.8887 4.42167 60.2302 4.55394 60.4515 4.81849C60.6727 5.08304 60.7834 5.44138 60.7834 5.89352V8.05078H60.1052V6.04503C60.1052 5.68909 60.0282 5.43417 59.8743 5.28025C59.7204 5.12152 59.5135 5.04215 59.2538 5.04215C58.9363 5.04215 58.6886 5.14557 58.5107 5.3524C58.3375 5.55922 58.2509 5.8358 58.2509 6.18211V8.05078Z" fill="#1090F7"/>
<defs>
<linearGradient id="paint0_linear_907_9260" x1="-0.291581" y1="3.64954" x2="6.08747" y2="6.76356" gradientUnits="userSpaceOnUse">
<stop stop-color="#5F56FF"/>
<stop offset="1" stop-color="#0EDEF9"/>
</linearGradient>
</defs>
</svg>
