<?xml version="1.0" encoding="UTF-8"?>
<svg version="1.1" xmlns="http://www.w3.org/2000/svg" width="119" height="116">
<path d="M0 0 C39.27 0 78.54 0 119 0 C119 38.28 119 76.56 119 116 C79.73 116 40.46 116 0 116 C0 77.72 0 39.44 0 0 Z " fill="#FDFDFD" transform="translate(0,0)"/>
<path d="M0 0 C1.15804175 1.12294957 2.30892985 2.25380694 3.43261719 3.41113281 C4.51922038 4.51263026 5.64316235 5.57804085 6.79394531 6.61230469 C10.74639972 10.48533379 12.47030651 13.30300675 12.82421875 18.890625 C12.81501166 21.0108865 12.76869207 23.13127363 12.6875 25.25 C12.68943359 26.32507813 12.69136719 27.40015625 12.69335938 28.5078125 C12.55269898 36.28778766 12.55269898 36.28778766 10.34954834 39.12678528 C7.33070568 41.53360552 5.67430421 41.50112755 1.84204102 41.50170898 C0.59717422 41.51108994 -0.64769257 41.52047089 -1.93028259 41.53013611 C-3.28555997 41.51965658 -4.64083071 41.5082874 -5.99609375 41.49609375 C-7.39087499 41.49624879 -8.78565667 41.49773866 -10.18043518 41.50050354 C-13.10168539 41.50188697 -16.02244429 41.48934151 -18.94360352 41.46655273 C-22.68067209 41.43819387 -26.41692296 41.44089864 -30.15405178 41.45364285 C-33.03407219 41.46061239 -35.913905 41.4527959 -38.79390144 41.44038582 C-40.17134951 41.4358818 -41.54881779 41.43552534 -42.92626762 41.43945122 C-44.85509445 41.44237491 -46.78391705 41.42365527 -48.71264648 41.40405273 C-49.80866684 41.39864975 -50.90468719 41.39324677 -52.03392029 41.38768005 C-55.40131873 40.94754582 -57.30534729 40.043169 -60 38 C-61.1026409 34.04289505 -60.83356901 29.967069 -60.8125 25.875 C-60.85697266 24.7715625 -60.90144531 23.668125 -60.94726562 22.53125 C-60.96575996 16.30235911 -60.32872065 12.62727855 -56.13671875 7.8828125 C-54.78406766 6.56112628 -53.40704212 5.26362649 -52 4 C-51.01 3.01 -50.02 2.02 -49 1 C-49 5.29 -49 9.58 -49 14 C-46.03 14 -43.06 14 -40 14 C-39.01 15.98 -38.02 17.96 -37 20 C-28.42 20 -19.84 20 -11 20 C-10.01 18.02 -9.02 16.04 -8 14 C-7 13 -7 13 -3.4375 12.9375 C-2.303125 12.958125 -1.16875 12.97875 0 13 C0 8.71 0 4.42 0 0 Z " fill="#DCE0E6" transform="translate(79,65)"/>
<path d="M0 0 C4.96628434 -0.02290956 9.93238663 -0.04283643 14.89868164 -0.05493164 C16.58944316 -0.0599719 18.28020029 -0.06680405 19.97094727 -0.07543945 C22.39600707 -0.08751857 24.82100944 -0.09323123 27.24609375 -0.09765625 C28.38672523 -0.10539818 28.38672523 -0.10539818 29.55039978 -0.11329651 C31.3673257 -0.11349238 33.18413127 -0.06197277 35 0 C36.5220959 1.5220959 36.12959521 2.88210082 36.1328125 5 C36.13474609 6.2065625 36.13474609 6.2065625 36.13671875 7.4375 C36.13285156 8.283125 36.12898438 9.12875 36.125 10 C36.13080078 11.2684375 36.13080078 11.2684375 36.13671875 12.5625 C36.13542969 13.366875 36.13414063 14.17125 36.1328125 15 C36.13168457 15.7425 36.13055664 16.485 36.12939453 17.25 C36 19 36 19 35 20 C32.40640678 20.08851529 29.83960309 20.11525945 27.24609375 20.09765625 C26.47064713 20.0962413 25.6952005 20.09482635 24.89625549 20.09336853 C22.40996506 20.08775345 19.9237634 20.07519846 17.4375 20.0625 C15.75586067 20.05748694 14.07421994 20.0529237 12.39257812 20.04882812 C8.26165671 20.03862832 4.13092818 20.01905605 0 20 C0 13.4 0 6.8 0 0 Z " fill="#DDE1E6" transform="translate(37,39)"/>
<path d="M0 0 C3.42026646 1.8333208 6.30092917 3.70642538 7.96875 7.23828125 C8.36253827 10.33936391 8.5995644 12.27875947 7.96875 15.23828125 C5.78125 18.05078125 5.78125 18.05078125 2.96875 20.23828125 C2.205625 20.83640625 1.4425 21.43453125 0.65625 22.05078125 C-5.57107708 24.80239089 -13.75050845 23.33186177 -20.03125 21.23828125 C-20.010625 20.43390625 -19.99 19.62953125 -19.96875 18.80078125 C-19.73491379 16.3047324 -19.73491379 16.3047324 -21.03125 15.23828125 C-21.74011076 8.14967366 -21.74011076 8.14967366 -18.84375 4.42578125 C-17.4515625 3.34296875 -17.4515625 3.34296875 -16.03125 2.23828125 C-15.28875 1.64015625 -14.54625 1.04203125 -13.78125 0.42578125 C-9.24713296 -1.53213293 -4.66575956 -1.74965984 0 0 Z " fill="#DEE2E7" transform="translate(107.03125,12.76171875)"/>
<path d="M0 0 C11.22 0 22.44 0 34 0 C34 1.32 34 2.64 34 4 C22.45 4 10.9 4 -1 4 C-0.67 2.68 -0.34 1.36 0 0 Z " fill="#E2E5EA" transform="translate(38,65)"/>
<path d="M0 0 C11.55 0 23.1 0 35 0 C35.495 1.485 35.495 1.485 36 3 C24.12 3 12.24 3 0 3 C0 2.01 0 1.02 0 0 Z " fill="#DEE2E7" transform="translate(37,73)"/>
<path d="M0 0 C0.33 0 0.66 0 1 0 C1 4.29 1 8.58 1 13 C-2.3 13 -5.6 13 -9 13 C-7.33037336 9.66074673 -5.71334229 7.15775675 -3.4375 4.25 C-2.81746094 3.45078125 -2.19742187 2.6515625 -1.55859375 1.828125 C-0.78708984 0.92320313 -0.78708984 0.92320313 0 0 Z " fill="#B2BBC5" transform="translate(29,66)"/>
<path d="M0 0 C4.00379374 2.97424678 6.99702939 6.05323863 10 10 C10 10.66 10 11.32 10 12 C6.7 12 3.4 12 0 12 C0 8.04 0 4.08 0 0 Z " fill="#B1BAC4" transform="translate(80,67)"/>
</svg>
